<svg width="19" height="22" viewBox="0 0 19 22" fill="none" xmlns="http://www.w3.org/2000/svg">
<path d="M15.936 21.32C15.2107 21.32 14.7093 21.0427 14.432 20.488C14.176 19.912 14.0267 19.0053 13.984 17.768L14.304 17.928C13.1093 20.2533 10.848 21.416 7.52 21.416C6.00533 21.416 4.74667 21.1493 3.744 20.616C2.74133 20.0613 1.99467 19.336 1.504 18.44C1.03467 17.5227 0.8 16.5307 0.8 15.464C0.8 13.6293 1.44 12.1787 2.72 11.112C4 10.024 5.696 9.48 7.808 9.48C9.19467 9.48 10.4 9.68267 11.424 10.088C12.448 10.4933 13.3227 11.0587 14.048 11.784L13.504 11.72C13.3547 9.56533 12.8853 8.02933 12.096 7.112C11.328 6.17333 10.2293 5.704 8.8 5.704C7.968 5.704 7.2 5.832 6.496 6.088C5.792 6.344 5.14133 6.61067 4.544 6.888C3.968 7.144 3.424 7.272 2.912 7.272C2.4 7.272 1.99467 7.10133 1.696 6.76C1.41867 6.41867 1.28 5.98133 1.28 5.448C1.28 4.68 1.64267 3.95467 2.368 3.272C3.11467 2.58933 4.096 2.03467 5.312 1.608C6.528 1.18133 7.85067 0.967999 9.28 0.967999C11.008 0.967999 12.4907 1.384 13.728 2.216C14.9653 3.048 15.904 4.264 16.544 5.864C17.0987 7.22933 17.4933 8.75467 17.728 10.44C17.9627 12.1253 18.08 13.928 18.08 15.848C18.08 17.2987 18.0053 18.4187 17.856 19.208C17.7067 19.9973 17.472 20.552 17.152 20.872C16.8533 21.1707 16.448 21.32 15.936 21.32ZM8.864 17.736C9.568 17.736 10.2827 17.64 11.008 17.448C11.7333 17.2347 12.3413 16.9253 12.832 16.52C13.3227 16.1147 13.568 15.6133 13.568 15.016C13.568 14.504 13.3547 14.088 12.928 13.768C12.5227 13.4267 11.9787 13.1707 11.296 13C10.6347 12.8293 9.92 12.744 9.152 12.744C7.85067 12.744 6.85867 12.968 6.176 13.416C5.51467 13.864 5.184 14.4613 5.184 15.208C5.184 16.0187 5.49333 16.648 6.112 17.096C6.752 17.5227 7.66933 17.736 8.864 17.736Z" fill="#FFC48D"/>
</svg>
